<?xml version="1.0" encoding="utf-8"?>
<!-- Generator: Adobe Illustrator 26.1.0, SVG Export Plug-In . SVG Version: 6.00 Build 0)  -->
<svg version="1.1" id="Layer_1" xmlns="http://www.w3.org/2000/svg" xmlns:xlink="http://www.w3.org/1999/xlink" x="0px" y="0px"
	 viewBox="0 0 40 40" style="enable-background:new 0 0 40 40;" xml:space="preserve">
<style type="text/css">
	.st0{fill:#F1F2F2;}
</style>
<path class="st0" d="M19.52,20.37c-2.08,0.18-3.58,1.56-3.5,3.04c0.09,1.73,2.34,2.74,4.08,2.76c1.22,0.01,2.7-0.44,3.35-1.37
	c0.24-0.34,0.37-0.74,0.37-1.18c0-2.65-7.33-3.21-8.53-6.73c-0.45-1.31-0.02-2.93,1.2-3.98c1.25-1.08,2.95-1.24,3.19-1.26
	c0.47-0.04,2.14-0.17,3.48,0.77c1.23,0.86,1.38,2.06,1.36,2.36c0,0.04-0.05,0.43-0.2,0.94c0,0,0,0,0,0
	c-0.03,0.06-0.08,0.13-0.11,0.19c-0.08,0.13-0.13,0.22-0.13,0.22c-0.05,0.09-0.37,0.49-1.1,0.83c-1.02,0.47-2.24,0.54-2.31,0.54
	c-2.41,0.11-4.19-0.76-4.29-0.62c-0.21,0.3,8.53,3.21,8.53,6.71c0,0.65-0.22,1.25-0.63,1.76c-1.17,1.44-3.6,1.59-4.21,1.61
	c-0.59,0.02-1.47,0.06-2.42-0.31c-1.39-0.54-2.3-1.69-2.41-2.84c-0.15-1.56,1.2-3.12,3.35-3.75C18.89,20.15,19.2,20.26,19.52,20.37z
	 M19.96,12.41c-1.58,0.03-3.09,1.4-2.91,2.16c0.19,0.78,2.15,0.91,3.07,0.88c0.18-0.01,2.65-0.11,2.84-1
	C23.11,13.69,21.55,12.38,19.96,12.41z"/>
</svg>
